<?xml version="1.0" encoding="UTF-8"?>
<svg width="20px" height="20px" viewBox="0 0 20 20" version="1.1" xmlns="http://www.w3.org/2000/svg" xmlns:xlink="http://www.w3.org/1999/xlink">
    <title>icon_edit call log</title>
    <g id="icon_edit-call-log" stroke="none" stroke-width="1" fill="none" fill-rule="evenodd">
        <g id="Group" transform="translate(2.000000, 1.000000)" fill="#4475FD" fill-rule="nonzero">
            <path d="M14.8571099,7.72976321 L14.9271099,7.77101321 L14.9889849,7.81851321 L15.0277349,7.85288821 L16.4383599,9.14163821 C16.6764849,9.32226321 16.7733599,9.61976321 16.6958599,9.89413821 L16.6702349,9.96788821 L16.6371099,10.0360132 L16.5814849,10.1328882 L9.37335992,17.4403882 C9.29148492,17.5222632 9.19585992,17.5897632 9.06898492,17.6460132 L8.96773492,17.6860132 L8.87460992,17.7116382 L7.02710992,18.1247632 L6.95960992,18.1247632 L6.88210992,18.1228882 C6.60898492,18.0997632 6.38023492,17.9253882 6.28960992,17.6841382 L6.26835992,17.6166382 L6.25273492,17.5266382 L6.24335992,17.4210132 L6.57085992,15.6035132 C6.59210992,15.4903882 6.63460992,15.3816382 6.70898492,15.2666382 L6.77085992,15.1785132 L6.83210992,15.1097632 L14.0271099,7.81413821 C14.2627349,7.62226321 14.5914849,7.59351321 14.8552349,7.73038821 L14.8571099,7.72976321 Z M12.5614849,10.9453882 L7.72085992,15.8553882 L7.54273492,16.8441382 L8.56085992,16.6172632 L13.3639849,11.7491382 L12.5608599,10.9460132 L12.5614849,10.9453882 Z M14.5246099,8.95476321 L13.4389849,10.0547632 L14.2427349,10.8585132 L15.3652349,9.72101321 L14.5246099,8.95413821 L14.5246099,8.95476321 Z" id="rich-text-editor-copy-4"></path>
            <path d="M7.5,0 C11.0338925,0 13.996932,2.4441125 14.7909337,5.73415287 L13.7125577,6.81194204 C13.3700164,3.68390218 10.7192424,1.25 7.5,1.25 L1.875,1.25 C1.52982203,1.25 1.25,1.52982203 1.25,1.875 L1.25,15.625 C1.25,15.970178 1.52982203,16.25 1.875,16.25 L4.274,16.25 L3.024,17.5 L1.25,17.5 C0.559644063,17.5 0,16.9403559 0,16.25 L0,1.25 C0,0.559644063 0.559644063,0 1.25,0 L7.5,0 Z M15,13.478 L15,16.25 C15,16.9403559 14.4403559,17.5 13.75,17.5 L10.978,17.5 L12.228,16.25 L13.125,16.25 C13.470178,16.25 13.75,15.970178 13.75,15.625 L13.75,14.728 L15,13.478 Z M8.75,10 C9.09517797,10 9.375,10.279822 9.375,10.625 C9.375,10.970178 9.09517797,11.25 8.75,11.25 L4.375,11.25 C4.02982203,11.25 3.75,10.970178 3.75,10.625 C3.75,10.279822 4.02982203,10 4.375,10 L8.75,10 Z M10.625,6.25 C10.970178,6.25 11.25,6.52982203 11.25,6.875 C11.25,7.22017797 10.970178,7.5 10.625,7.5 L4.375,7.5 C4.02982203,7.5 3.75,7.22017797 3.75,6.875 C3.75,6.52982203 4.02982203,6.25 4.375,6.25 L10.625,6.25 Z" id="Combined-Shape-Copy"></path>
        </g>
    </g>
</svg>
