<svg width="166" height="22" viewBox="0 0 166 22" fill="none" xmlns="http://www.w3.org/2000/svg">
<path d="M108.153 17V4.55851H112.561C113.853 4.55851 114.848 4.89028 115.547 5.55383C116.258 6.20553 116.614 7.10605 116.614 8.25541C116.614 9.93797 115.772 11.0044 114.09 11.4547L114.054 11.5435C114.35 11.7805 114.581 12.0767 114.747 12.4322L117.04 17H114.907L112.312 11.9345H110.162V17H108.153ZM112.508 10.3705C113.171 10.3705 113.687 10.2105 114.054 9.89058C114.433 9.55881 114.623 9.08484 114.623 8.46869V8.02436C114.623 7.4082 114.433 6.94017 114.054 6.62024C113.687 6.28847 113.171 6.12258 112.508 6.12258H110.162V10.3705H112.508ZM121.139 6.33587H118.899V4.23859H121.139V6.33587ZM119.237 11.0281C119.237 10.4119 119.29 9.97945 119.397 9.73062L119.343 9.65952H117.619V8.11322H121.192V17H119.237V11.0281ZM123.866 17V8.11322H125.537L125.715 9.23296H125.804C126.455 8.34428 127.344 7.89994 128.47 7.89994C129.453 7.89994 130.211 8.18432 130.745 8.75307C131.278 9.32182 131.544 10.1157 131.544 11.1347V17H129.589V11.3125C129.589 10.7082 129.429 10.246 129.109 9.92613C128.801 9.6062 128.363 9.44624 127.794 9.44624C127.19 9.44624 126.71 9.61805 126.355 9.96167C125.999 10.3053 125.821 10.7674 125.821 11.348V17H123.866ZM137.771 21.0168C136.74 21.0168 135.881 20.7976 135.194 20.3592C134.507 19.9326 134.05 19.3935 133.825 18.7418L135.549 18.2086C135.715 18.5522 135.988 18.8425 136.367 19.0795C136.758 19.3165 137.22 19.435 137.753 19.435C139.187 19.435 139.904 18.5996 139.904 16.9289V15.5959H139.815C139.554 16.058 139.205 16.4135 138.766 16.6623C138.34 16.9111 137.842 17.0355 137.273 17.0355C136.574 17.0355 135.946 16.8519 135.389 16.4846C134.832 16.1054 134.394 15.5722 134.074 14.8849C133.754 14.1859 133.594 13.3801 133.594 12.4677C133.594 11.5554 133.754 10.7556 134.074 10.0683C134.406 9.36922 134.85 8.83601 135.407 8.46869C135.976 8.08952 136.61 7.89994 137.309 7.89994C138.411 7.89994 139.27 8.40945 139.886 9.42847H139.975L140.188 8.11322H141.859V16.6623C141.859 18.0486 141.503 19.121 140.792 19.8793C140.081 20.6377 139.074 21.0168 137.771 21.0168ZM137.735 15.4359C138.399 15.4359 138.926 15.2226 139.317 14.7961C139.708 14.3695 139.904 13.7889 139.904 13.0543V11.8634C139.904 11.1288 139.708 10.5482 139.317 10.1216C138.926 9.69507 138.399 9.48179 137.735 9.48179C137.06 9.48179 136.533 9.70099 136.154 10.1394C135.774 10.566 135.585 11.1821 135.585 11.9879V12.9476C135.585 13.7415 135.774 14.3577 136.154 14.7961C136.533 15.2226 137.06 15.4359 137.735 15.4359ZM149.362 17.2133C148.308 17.2133 147.378 16.9704 146.572 16.4846C145.778 15.9988 145.156 15.276 144.706 14.3162C144.256 13.3446 144.03 12.1656 144.03 10.7793C144.03 9.39292 144.256 8.21986 144.706 7.26009C145.156 6.28847 145.778 5.55976 146.572 5.07395C147.378 4.58813 148.308 4.34523 149.362 4.34523C150.737 4.34523 151.827 4.67108 152.633 5.32278C153.439 5.97447 153.966 6.88685 154.215 8.0599L152.331 8.48647C151.999 6.88685 151.01 6.08704 149.362 6.08704C148.391 6.08704 147.609 6.43658 147.016 7.13568C146.424 7.82292 146.128 8.80047 146.128 10.0683V11.4902C146.128 12.7699 146.424 13.7534 147.016 14.4406C147.609 15.1279 148.391 15.4715 149.362 15.4715C150.938 15.4715 151.934 14.6776 152.348 13.0898L154.215 13.4986C153.93 14.6598 153.379 15.5722 152.562 16.2357C151.744 16.8874 150.678 17.2133 149.362 17.2133ZM154.627 17L158.253 10.6548L154.592 4.55851H156.689L159.248 8.77084C159.474 9.16186 159.616 9.44031 159.675 9.6062H159.782C159.841 9.44031 159.983 9.16186 160.208 8.77084L162.768 4.55851H164.865L161.204 10.6548L164.829 17H162.732L160.208 12.681C160.019 12.373 159.876 12.0886 159.782 11.8279H159.675C159.58 12.0886 159.438 12.373 159.248 12.681L156.725 17H154.627Z" fill="#222222"/>
<path d="M103.746 4.95312C102.852 4.95312 102.125 5.68167 102.125 6.57662C102.125 7.47297 102.852 8.20151 103.746 8.20151C104.641 8.20151 105.368 7.47297 105.368 6.57662C105.368 5.68167 104.642 4.95312 103.746 4.95312ZM103.746 7.90786C103.013 7.90786 102.416 7.31076 102.416 6.57662C102.416 5.84388 103.013 5.24538 103.746 5.24538C104.48 5.24538 105.076 5.84388 105.076 6.57662C105.078 7.31216 104.48 7.90786 103.746 7.90786ZM104.497 7.10939C104.484 7.03948 104.477 6.95977 104.477 6.87028C104.477 6.80036 104.467 6.74023 104.449 6.68989C104.431 6.64234 104.407 6.599 104.376 6.56683C104.362 6.55145 104.35 6.53886 104.335 6.52768C104.347 6.51789 104.36 6.5053 104.371 6.49272C104.406 6.45636 104.436 6.41021 104.463 6.35288C104.49 6.29415 104.502 6.22423 104.502 6.13753C104.502 5.98372 104.45 5.85926 104.347 5.76977C104.248 5.68307 104.101 5.63972 103.909 5.63972H103.161C103.12 5.63972 103.088 5.67188 103.088 5.71243V7.28419C103.088 7.32474 103.12 7.3569 103.161 7.3569H103.436C103.476 7.3569 103.509 7.32335 103.509 7.28419V6.70947H103.841C103.894 6.70947 103.938 6.71646 103.968 6.72904C103.995 6.73883 104.016 6.75421 104.031 6.77798C104.048 6.80455 104.061 6.83811 104.068 6.88007C104.076 6.92761 104.08 6.98774 104.08 7.05346C104.08 7.09261 104.082 7.13597 104.086 7.17792C104.09 7.23105 104.107 7.28 104.132 7.32335C104.144 7.34432 104.168 7.3583 104.193 7.3583H104.488C104.518 7.3583 104.544 7.34013 104.555 7.31356C104.568 7.28699 104.562 7.25622 104.541 7.23525C104.531 7.22406 104.511 7.1905 104.497 7.10939ZM103.509 6.01169H103.882C103.912 6.01169 103.943 6.01308 103.973 6.01868C103.995 6.02287 104.014 6.02986 104.031 6.04105C104.045 6.05224 104.058 6.06622 104.066 6.0858C104.076 6.10677 104.082 6.13893 104.082 6.17669C104.082 6.23962 104.068 6.28437 104.038 6.31093C104.006 6.3389 103.956 6.35428 103.887 6.35428H103.51V6.01169H103.509Z" fill="#FF7A00"/>
<path d="M7.36468 4.9375C10.3584 4.9375 11.8644 6.03945 11.8644 8.26155C11.8644 9.3635 11.4972 10.3367 10.8543 10.9796C10.4685 11.3467 10.1564 11.4937 9.44029 11.6593C10.8543 12.1921 11.1483 12.5774 11.1483 14.0102C11.1483 14.2122 11.1301 14.8364 11.075 15.2959C11.02 15.9388 11.02 16.1222 11.02 16.3246C11.02 16.6736 11.0382 16.7105 11.3139 16.8574V17.1882H7.23685C7.1818 16.9129 7.16314 16.8392 7.16314 16.6372C7.16314 16.4721 7.18134 16.2332 7.27324 15.4433C7.4202 14.5616 7.4202 14.3414 7.4202 14.0661C7.4202 13.2399 6.99799 12.8172 6.13444 12.8172H4.46332L3.8391 17.1882H0L1.79988 4.9375H7.36468ZM8.31968 8.99633C8.31968 8.1701 7.86061 7.83933 6.75866 7.83933H5.19764L4.84867 10.1715H6.53846C7.73231 10.1715 8.31968 9.78571 8.31968 8.99633Z" fill="#0684BC"/>
<path d="M16.6369 9.69531L15.6595 17.1846H12.2617L13.6123 9.69531H16.6369Z" fill="#0684BC"/>
<path d="M21.5679 8.30003L21.3841 9.56713C22.3209 8.44699 23.0739 8.04297 24.2491 8.04297C26.0672 8.04297 27.2979 9.18177 27.2979 10.816C27.2979 11.1832 27.2428 11.6791 27.1691 12.2488L26.4343 17.1893H23.0366L23.7345 12.5245C23.7713 12.3043 23.7895 12.1023 23.7895 11.9185C23.7895 11.2387 23.3305 10.7615 22.6507 10.7615C21.7877 10.7615 21.3468 11.3675 21.1448 12.7452L20.4837 17.1898H17.0859L18.3899 8.30096H21.567L21.5679 8.30003Z" fill="#0684BC"/>
<path d="M32.3173 18.2184C33.0335 18.2184 33.4193 17.9245 33.6582 17.2084C33.7501 16.9331 33.8233 16.6024 33.9703 15.8863C33.0521 16.621 32.5562 16.8044 31.6194 16.8044C29.4155 16.8044 28.1302 15.4085 28.1302 12.9662C28.1302 10.0275 29.7831 8.0625 32.281 8.0625C33.4748 8.0625 34.2091 8.42966 35.0176 9.45837L35.1828 8.30136H38.3048L37.4417 14.2702L37.3867 14.6373C37.1478 16.4004 37.1478 16.5842 37.0009 17.0251C36.4681 19.3022 35.1459 20.1839 32.1522 20.1839C30.2422 20.1839 29.1221 19.835 28.4055 18.9719C27.9833 18.476 27.8363 18.0351 27.7812 17.319H31.2341C31.326 17.9987 31.5648 18.2189 32.3178 18.2189L32.3173 18.2184ZM31.5275 12.7087C31.5275 13.6455 32.0416 14.2515 32.9047 14.2515C33.7678 14.2515 34.4289 13.4435 34.4289 12.2865C34.4289 11.2578 33.933 10.7073 33.0699 10.7073C32.1331 10.7073 31.527 11.5335 31.527 12.7092L31.5275 12.7087Z" fill="#0684BC"/>
<path d="M44.8632 17.4994C43.1184 17.4994 41.4655 16.9116 40.4923 15.9384C39.5924 15.0016 38.9863 13.4224 38.9863 11.8796C38.9863 9.47367 39.6292 7.71065 41.0433 6.31478C42.2185 5.13912 43.5961 4.625 45.6531 4.625C48.9589 4.625 50.9422 6.40669 51.0891 9.54692H47.4525C47.2873 8.73888 47.2505 8.53688 47.0853 8.29801C46.7914 7.83894 46.2222 7.58188 45.5794 7.58188C44.9915 7.58188 44.4406 7.82075 44.0734 8.2061C43.3386 8.99594 42.8613 10.4469 42.8613 11.9892C42.8613 13.6421 43.5224 14.4684 44.8264 14.4684C45.5425 14.4684 46.2036 14.1563 46.6263 13.5866C46.7914 13.3664 46.8833 13.1826 47.1222 12.5029H50.8139C50.373 15.5148 48.059 17.4985 44.8632 17.4985V17.4994Z" fill="#FF7A00"/>
<path d="M60.2524 16.0701C59.3524 16.9332 57.8833 17.4473 56.2673 17.4473C54.7431 17.4473 53.2922 16.9513 52.5023 16.1615C51.8413 15.5004 51.4004 14.3434 51.4004 13.2965C51.4004 10.1376 53.4391 8.0625 56.5243 8.0625C59.6095 8.0625 61.2442 9.77048 61.2442 12.5435C61.2442 12.7456 61.2442 12.9844 61.1892 13.4985H54.8345C54.8345 14.1228 54.8527 14.2697 54.9997 14.5823C55.2017 15.0232 55.6976 15.2984 56.3405 15.2984C56.9834 15.2984 57.4243 15.0232 57.6627 14.4904H61.1155C60.8402 15.2984 60.6746 15.6474 60.2524 16.0696V16.0701ZM56.6344 10.1381C55.7527 10.1381 55.3673 10.5421 54.9997 11.8643H58.0116C57.9934 10.6704 57.5708 10.1381 56.6344 10.1381Z" fill="#FF7A00"/>
<path d="M66.1714 8.30003L65.9876 9.56713C66.9244 8.44699 67.6774 8.04297 68.8526 8.04297C70.6707 8.04297 71.9014 9.18177 71.9014 10.816C71.9014 11.1832 71.8463 11.6791 71.7726 12.2488L71.0378 17.1893H67.6401L68.338 12.5245C68.3749 12.3043 68.3931 12.1023 68.3931 11.9185C68.3931 11.2387 67.934 10.7615 67.2543 10.7615C66.3912 10.7615 65.9503 11.3675 65.7483 12.7452L65.0872 17.1898H61.6895L62.9934 8.30096H66.1705L66.1714 8.30003Z" fill="#FF7A00"/>
<path d="M74.2731 8.25878L74.6589 5.50391H78.0567L77.6526 8.25878H79.1955L78.9015 10.2975H77.3774L76.9183 13.3463C76.8633 13.6953 76.8633 13.8422 76.8633 13.9705C76.8633 14.4114 77.1021 14.5215 77.9834 14.5215H78.4056L78.0385 17.0744C77.3223 17.1476 76.9547 17.1845 76.3673 17.1845C74.2185 17.1845 73.3372 16.5234 73.3372 14.9624C73.3372 14.8154 73.3372 14.7235 73.3923 14.4114V14.3195L73.4105 14.2645V14.1725L73.4287 14.0993L73.9614 10.2975H72.7676L73.0797 8.25878H74.2735H74.2731Z" fill="#FF7A00"/>
<path d="M83.528 8.30017L83.271 9.9349C83.9138 8.59409 84.5199 8.17188 85.8056 8.17188C86.0076 8.17188 86.1546 8.17187 86.3748 8.19007L85.8607 11.606C85.5117 11.551 85.0895 11.5141 84.9239 11.5141C83.7487 11.5141 83.2892 11.9732 83.0872 13.2221L82.4993 17.189H79.1016L80.4055 8.30017H83.5276H83.528Z" fill="#FF7A00"/>
<path d="M91.1235 16.892C90.5544 17.2591 89.6358 17.498 88.8277 17.498C86.9728 17.498 85.834 16.543 85.834 15.0002C85.834 13.8801 86.4218 12.9251 87.3768 12.4842C87.799 12.3004 88.2767 12.1721 88.7727 12.0984C90.5357 11.8595 89.7645 11.9696 91.3437 11.7676C92.1518 11.6388 92.4457 11.4368 92.4457 10.9045C92.4457 10.3353 92.0599 10.0596 91.3069 10.0596C90.5539 10.0596 90.2418 10.2985 89.9661 11.0879H86.789C86.9177 9.08596 88.5338 8.03906 91.5271 8.03906C94.0981 8.03906 95.6592 9.04911 95.6592 10.6652C95.6592 10.8672 95.641 11.0874 95.6223 11.3631L95.0531 15.6972C95.0349 15.826 95.0163 15.9543 95.0163 16.1012C95.0163 16.4684 95.0345 16.5603 95.2733 17.185H91.9675L91.9124 16.1567C91.4716 16.6158 91.3246 16.7446 91.1226 16.8915L91.1235 16.892ZM90.7746 13.3659C89.6544 13.5679 89.2686 13.8619 89.2686 14.5047C89.2686 15.0189 89.5994 15.331 90.2418 15.331C91.1049 15.331 91.6745 14.9638 91.9498 14.2108C92.0417 13.9169 92.0785 13.972 92.17 13.072C91.674 13.1639 91.8942 13.1271 90.7741 13.3659H90.7746Z" fill="#FF7A00"/>
<path d="M101.436 4.9375L99.636 17.1872H96.2383L98.0382 4.9375H101.436Z" fill="#FF7A00"/>
<ellipse cx="15.1976" cy="8.39295" rx="0.908572" ry="0.908572" fill="#FF7A00"/>
<path fill-rule="evenodd" clip-rule="evenodd" d="M17.8387 7.3525C16.9416 5.79865 14.9547 5.26627 13.4008 6.16338L13.002 5.47249C14.9374 4.35508 17.4122 5.0182 18.5296 6.95361L17.8387 7.3525ZM16.6239 7.90008C16.1297 7.04409 15.0351 6.7508 14.1791 7.24501L13.7802 6.55412C15.0178 5.83962 16.6003 6.26363 17.3148 7.5012L16.6239 7.90008Z" fill="#FF7A00"/>
</svg>
